<svg width="200" height="27" viewBox="0 0 200 27" fill="none" xmlns="http://www.w3.org/2000/svg">
<path d="M85.8446 15.0757C85.8446 16.0249 85.4989 16.7544 84.8075 17.2642C84.1161 17.7681 83.1259 18.02 81.8368 18.02C80.5419 18.02 79.5018 17.8237 78.7167 17.4312V15.647C79.8593 16.1743 80.9227 16.438 81.9071 16.438C83.1786 16.438 83.8143 16.0542 83.8143 15.2866C83.8143 15.0405 83.744 14.8354 83.6034 14.6714C83.4628 14.5073 83.2313 14.3374 82.9091 14.1616C82.5868 13.9858 82.1385 13.7866 81.5643 13.564C80.4452 13.1304 79.6864 12.6968 79.288 12.2632C78.8954 11.8296 78.6991 11.2671 78.6991 10.5757C78.6991 9.74365 79.0331 9.09912 79.701 8.64209C80.3749 8.1792 81.2889 7.94775 82.4432 7.94775C83.5858 7.94775 84.6669 8.1792 85.6864 8.64209L85.0184 10.1978C83.9696 9.76416 83.0878 9.54736 82.3729 9.54736C81.2831 9.54736 80.7382 9.85791 80.7382 10.479C80.7382 10.7837 80.8788 11.0415 81.16 11.2524C81.4471 11.4634 82.0682 11.7534 83.0233 12.1226C83.826 12.4331 84.4091 12.7173 84.7723 12.9751C85.1356 13.2329 85.4052 13.5317 85.5809 13.8716C85.7567 14.2056 85.8446 14.6069 85.8446 15.0757Z" fill="white"/>
<path d="M91.7069 16.3501C92.2108 16.3501 92.7147 16.271 93.2186 16.1128V17.6685C92.9901 17.7681 92.6942 17.8501 92.3309 17.9146C91.9735 17.9849 91.6014 18.02 91.2147 18.02C89.2577 18.02 88.2792 16.9888 88.2792 14.9263V9.68799H86.952V8.77393L88.3759 8.01807L89.079 5.96143H90.3534V8.12354H93.1219V9.68799H90.3534V14.8911C90.3534 15.3892 90.4764 15.7583 90.7225 15.9985C90.9745 16.2329 91.3026 16.3501 91.7069 16.3501Z" fill="white"/>
<path d="M97.2352 17.8442H95.1698V8.12354H97.2352V17.8442ZM95.0468 5.54834C95.0468 5.1792 95.1464 4.89502 95.3456 4.6958C95.5507 4.49658 95.8407 4.39697 96.2157 4.39697C96.579 4.39697 96.8602 4.49658 97.0594 4.6958C97.2645 4.89502 97.3671 5.1792 97.3671 5.54834C97.3671 5.8999 97.2645 6.17822 97.0594 6.3833C96.8602 6.58252 96.579 6.68213 96.2157 6.68213C95.8407 6.68213 95.5507 6.58252 95.3456 6.3833C95.1464 6.17822 95.0468 5.8999 95.0468 5.54834Z" fill="white"/>
<path d="M104.117 18.02C102.646 18.02 101.527 17.5923 100.76 16.7368C99.9979 15.8755 99.6171 14.6421 99.6171 13.0366C99.6171 11.4019 100.016 10.145 100.812 9.26611C101.615 8.38721 102.772 7.94775 104.284 7.94775C105.309 7.94775 106.232 8.13818 107.053 8.51904L106.429 10.1802C105.556 9.84033 104.835 9.67041 104.266 9.67041C102.585 9.67041 101.744 10.7866 101.744 13.019C101.744 14.1089 101.952 14.9292 102.368 15.48C102.79 16.0249 103.405 16.2974 104.214 16.2974C105.134 16.2974 106.004 16.0688 106.824 15.6118V17.4136C106.455 17.6304 106.059 17.7856 105.638 17.8794C105.222 17.9731 104.715 18.02 104.117 18.02Z" fill="white"/>
<path d="M111.104 12.7114L112.273 11.2524L115.209 8.12354H117.591L113.68 12.2983L117.837 17.8442H115.411L112.291 13.5815L111.157 14.5132V17.8442H109.109V4.16846H111.157V10.8394L111.052 12.7114H111.104Z" fill="white"/>
<path d="M123.655 18.02C122.143 18.02 120.96 17.5806 120.104 16.7017C119.255 15.8169 118.83 14.6011 118.83 13.0542C118.83 11.4663 119.225 10.2183 120.016 9.31006C120.807 8.40186 121.894 7.94775 123.277 7.94775C124.56 7.94775 125.574 8.3374 126.318 9.1167C127.062 9.896 127.434 10.9683 127.434 12.3335V13.4497H120.957C120.986 14.3931 121.241 15.1196 121.722 15.6294C122.202 16.1333 122.879 16.3853 123.752 16.3853C124.326 16.3853 124.859 16.3325 125.351 16.2271C125.849 16.1157 126.383 15.9341 126.951 15.6821V17.3608C126.447 17.6011 125.937 17.771 125.422 17.8706C124.906 17.9702 124.317 18.02 123.655 18.02ZM123.277 9.51221C122.621 9.51221 122.094 9.72021 121.695 10.1362C121.303 10.5522 121.068 11.1587 120.992 11.9556H125.404C125.392 11.1528 125.199 10.5464 124.824 10.1362C124.449 9.72021 123.933 9.51221 123.277 9.51221Z" fill="white"/>
<path d="M134.712 7.94775C135.128 7.94775 135.471 7.97705 135.74 8.03564L135.538 9.96045C135.245 9.89014 134.94 9.85498 134.624 9.85498C133.798 9.85498 133.127 10.1245 132.611 10.6636C132.101 11.2026 131.847 11.9028 131.847 12.7642V17.8442H129.781V8.12354H131.398L131.671 9.8374H131.776C132.099 9.25732 132.517 8.79736 133.033 8.45752C133.555 8.11768 134.114 7.94775 134.712 7.94775Z" fill="white"/>
<path d="M144.292 17.8442H142.226V8.12354H144.292V17.8442ZM142.103 5.54834C142.103 5.1792 142.203 4.89502 142.402 4.6958C142.607 4.49658 142.897 4.39697 143.272 4.39697C143.636 4.39697 143.917 4.49658 144.116 4.6958C144.321 4.89502 144.424 5.1792 144.424 5.54834C144.424 5.8999 144.321 6.17822 144.116 6.3833C143.917 6.58252 143.636 6.68213 143.272 6.68213C142.897 6.68213 142.607 6.58252 142.402 6.3833C142.203 6.17822 142.103 5.8999 142.103 5.54834Z" fill="white"/>
<path d="M155.445 17.8442H153.371V11.8501C153.371 11.106 153.23 10.5522 152.949 10.189C152.668 9.81982 152.228 9.63525 151.631 9.63525C150.834 9.63525 150.248 9.896 149.873 10.4175C149.504 10.9331 149.319 11.7944 149.319 13.0015V17.8442H147.254V8.12354H148.871L149.161 9.39795H149.266C149.536 8.93506 149.926 8.57764 150.435 8.32568C150.951 8.07373 151.516 7.94775 152.132 7.94775C153.626 7.94775 154.616 8.45752 155.102 9.47705H155.243C155.53 8.99658 155.934 8.62158 156.456 8.35205C156.977 8.08252 157.575 7.94775 158.249 7.94775C159.409 7.94775 160.253 8.24072 160.78 8.82666C161.313 9.4126 161.58 10.3062 161.58 11.5073V17.8442H159.515V11.8501C159.515 11.106 159.371 10.5522 159.084 10.189C158.803 9.81982 158.363 9.63525 157.766 9.63525C156.963 9.63525 156.374 9.88721 155.999 10.3911C155.63 10.8892 155.445 11.6567 155.445 12.6938V17.8442Z" fill="white"/>
<path d="M169.393 18.02C168.163 18.02 167.208 17.5776 166.528 16.6929H166.405C166.487 17.5132 166.528 18.0112 166.528 18.187V22.1685H164.463V8.12354H166.133C166.18 8.30518 166.276 8.73877 166.423 9.42432H166.528C167.173 8.43994 168.14 7.94775 169.429 7.94775C170.641 7.94775 171.585 8.38721 172.259 9.26611C172.938 10.145 173.278 11.3784 173.278 12.9663C173.278 14.5542 172.932 15.7935 172.241 16.6841C171.556 17.5747 170.606 18.02 169.393 18.02ZM168.892 9.63525C168.072 9.63525 167.472 9.87549 167.091 10.356C166.716 10.8364 166.528 11.604 166.528 12.6587V12.9663C166.528 14.1499 166.716 15.0083 167.091 15.5415C167.466 16.0688 168.078 16.3325 168.928 16.3325C169.642 16.3325 170.193 16.0396 170.58 15.4536C170.967 14.8677 171.16 14.0327 171.16 12.9487C171.16 11.8589 170.967 11.0356 170.58 10.479C170.199 9.9165 169.637 9.63525 168.892 9.63525Z" fill="white"/>
<path d="M184.3 12.9663C184.3 14.5542 183.892 15.7935 183.078 16.6841C182.264 17.5747 181.13 18.02 179.677 18.02C178.768 18.02 177.966 17.8149 177.268 17.4048C176.571 16.9946 176.035 16.4058 175.66 15.6382C175.285 14.8706 175.098 13.98 175.098 12.9663C175.098 11.3901 175.502 10.1597 176.31 9.2749C177.119 8.39014 178.259 7.94775 179.729 7.94775C181.136 7.94775 182.249 8.40186 183.069 9.31006C183.89 10.2124 184.3 11.4312 184.3 12.9663ZM177.224 12.9663C177.224 15.2104 178.054 16.3325 179.712 16.3325C181.352 16.3325 182.173 15.2104 182.173 12.9663C182.173 10.7456 181.347 9.63525 179.694 9.63525C178.827 9.63525 178.197 9.92236 177.805 10.4966C177.418 11.0708 177.224 11.894 177.224 12.9663Z" fill="white"/>
<path d="M191.612 7.94775C192.028 7.94775 192.371 7.97705 192.641 8.03564L192.438 9.96045C192.145 9.89014 191.841 9.85498 191.524 9.85498C190.698 9.85498 190.027 10.1245 189.512 10.6636C189.002 11.2026 188.747 11.9028 188.747 12.7642V17.8442H186.682V8.12354H188.299L188.571 9.8374H188.677C188.999 9.25732 189.418 8.79736 189.933 8.45752C190.455 8.11768 191.015 7.94775 191.612 7.94775Z" fill="white"/>
<path d="M198.072 16.3501C198.576 16.3501 199.08 16.271 199.584 16.1128V17.6685C199.355 17.7681 199.059 17.8501 198.696 17.9146C198.339 17.9849 197.967 18.02 197.58 18.02C195.623 18.02 194.644 16.9888 194.644 14.9263V9.68799H193.317V8.77393L194.741 8.01807L195.444 5.96143H196.719V8.12354H199.487V9.68799H196.719V14.8911C196.719 15.3892 196.842 15.7583 197.088 15.9985C197.34 16.2329 197.668 16.3501 198.072 16.3501Z" fill="white"/>
<path fill-rule="evenodd" clip-rule="evenodd" d="M0.931274 13.1685C0.931274 5.9899 6.75064 0.168457 13.9292 0.168457H51.9334C59.1119 0.168457 64.9313 5.9899 64.9313 13.1685C64.9313 20.347 59.1119 26.1685 51.9334 26.1685H13.9292C6.75064 26.1685 0.931274 20.347 0.931274 13.1685ZM19.2057 21.2789C18.6577 21.0718 18.1615 20.7473 17.7521 20.3282C17.5119 20.0876 17.3918 19.8206 17.3918 19.5273C17.3836 19.3928 17.4075 19.2582 17.4614 19.1347C17.5153 19.0111 17.5978 18.9022 17.702 18.8166C17.9289 18.6161 18.1591 18.5161 18.3926 18.5165C18.5453 18.5163 18.6955 18.5561 18.8281 18.6317C18.9881 18.7243 19.1405 18.8296 19.2837 18.9464C19.8119 19.396 20.4926 19.6255 21.1851 19.5875C21.5175 19.581 21.8451 19.5071 22.1481 19.3702C22.758 19.0995 23.2463 18.613 23.5193 18.0041C23.6594 17.6972 23.7473 17.3691 23.7793 17.0333C23.1186 17.4987 22.3506 17.7888 21.5472 17.8765C20.7438 17.9642 19.9312 17.8465 19.1857 17.5346C18.0286 17.0451 17.1077 16.1241 16.6182 14.9671C16.3766 14.3844 16.2523 13.7599 16.2523 13.1291C16.2523 12.4984 16.3766 11.8739 16.6182 11.2912C17.1079 10.1344 18.0288 9.21376 19.1857 8.72429C19.9335 8.41005 20.7494 8.29287 21.5554 8.38394C22.3614 8.47501 23.1306 8.7713 23.7894 9.24447C23.8123 8.99879 23.9287 8.7713 24.1146 8.609C24.2991 8.44101 24.5407 8.34977 24.7902 8.35392C24.9205 8.35043 25.0502 8.3733 25.1714 8.42115C25.2927 8.469 25.403 8.54086 25.4958 8.63239C25.5892 8.72315 25.6627 8.83225 25.7118 8.95284C25.7609 9.07343 25.7844 9.20288 25.781 9.33303V12.8356C25.7794 12.8826 25.7827 12.9297 25.791 12.976V13.2762C25.7831 13.3259 25.7798 13.3762 25.781 13.4266V16.8495C25.7724 17.4942 25.6401 18.1312 25.3911 18.7259C25.1546 19.294 24.8076 19.8095 24.3703 20.2424C23.9368 20.6754 23.4212 21.0174 22.8537 21.2483C22.2676 21.4868 21.6402 21.6075 21.0074 21.6036C20.3919 21.6086 19.7808 21.4985 19.2057 21.2789ZM22.0528 15.7039C22.3718 15.5732 22.665 15.3869 22.9189 15.1536C23.4167 14.6817 23.726 14.045 23.7894 13.362V12.9014C23.7581 12.5561 23.6649 12.2194 23.5142 11.9072C23.3687 11.6034 23.1667 11.3301 22.9189 11.1019C22.667 10.8722 22.3752 10.6906 22.0578 10.5661C21.383 10.3011 20.6319 10.3065 19.9609 10.5811C19.6297 10.7176 19.3288 10.9182 19.0754 11.1715C18.8177 11.4283 18.6121 11.7326 18.47 12.0676C18.3261 12.4041 18.2524 12.7665 18.2534 13.1325C18.2526 13.4993 18.3285 13.8622 18.4761 14.1979C18.7629 14.8654 19.2947 15.3974 19.9621 15.6844C20.292 15.8265 20.6468 15.9014 21.006 15.9048C21.3651 15.9083 21.7214 15.8402 22.0539 15.7045L22.0528 15.7039ZM27.297 6.62083C27.3538 6.75491 27.4374 6.87597 27.5426 6.97661H27.5387C27.6939 7.13057 27.8911 7.23533 28.1055 7.27778C28.3199 7.32023 28.5422 7.29847 28.7443 7.21524C28.9464 7.132 29.1195 6.99099 29.2419 6.80985C29.3643 6.62871 29.4305 6.41549 29.4323 6.19689C29.4342 6.04949 29.4059 5.90326 29.3491 5.76723C29.2923 5.63121 29.2082 5.50827 29.102 5.40603C28.8938 5.20193 28.6139 5.08762 28.3223 5.08762C28.0308 5.08762 27.7508 5.20193 27.5426 5.40603C27.4365 5.50835 27.3525 5.6313 27.2957 5.76731C27.2389 5.90332 27.2105 6.04951 27.2123 6.19689C27.2114 6.34249 27.2402 6.48675 27.297 6.62083ZM27.4099 17.1764C27.4616 17.2969 27.5375 17.4055 27.6328 17.4956H27.6312C27.7697 17.6342 27.9463 17.7285 28.1385 17.7668C28.3307 17.805 28.5299 17.7854 28.711 17.7104C28.892 17.6354 29.0468 17.5084 29.1556 17.3454C29.2645 17.1825 29.3226 16.9909 29.3226 16.7949V9.34863C29.3266 9.08438 29.2265 8.82916 29.0441 8.63797C28.955 8.54221 28.8462 8.46675 28.7254 8.41668C28.6045 8.36662 28.4742 8.34313 28.3435 8.3478C28.0776 8.34702 27.8222 8.45131 27.6328 8.63797C27.5347 8.72795 27.4571 8.83798 27.4052 8.96059C27.3533 9.0832 27.3284 9.21554 27.3321 9.34863V16.7949C27.3317 16.9261 27.3581 17.0559 27.4099 17.1764ZM37.606 17.5257C37.5127 17.435 37.4391 17.3259 37.3901 17.2053C37.341 17.0847 37.3174 16.9552 37.3209 16.8251V12.9822C37.3075 12.175 37.1174 11.5345 36.7506 11.0607C36.3633 10.5803 35.8394 10.3401 35.1789 10.3401C34.8588 10.3374 34.5417 10.4021 34.2482 10.53C33.9631 10.6554 33.7099 10.8435 33.5075 11.0802C33.2968 11.3272 33.1325 11.6103 33.0224 11.9156C32.9034 12.241 32.8434 12.585 32.8453 12.9315V16.795C32.8453 17.0591 32.7404 17.3124 32.5536 17.4992C32.3669 17.6859 32.1136 17.7908 31.8495 17.7908C31.5854 17.7908 31.3321 17.6859 31.1453 17.4992C30.9586 17.3124 30.8537 17.0591 30.8537 16.795V9.3487C30.8498 9.21565 30.8747 9.08333 30.9264 8.96071C30.9782 8.8381 31.0558 8.72805 31.1538 8.63804C31.3433 8.45148 31.5986 8.34721 31.8645 8.34787C31.9955 8.34296 32.1261 8.36633 32.2473 8.4164C32.3685 8.46647 32.4775 8.54207 32.5668 8.63804C32.7492 8.82923 32.8493 9.08446 32.8453 9.3487V9.48849C33.1981 9.14251 33.6079 8.85991 34.0566 8.65308C34.4772 8.4592 34.9347 8.35851 35.3978 8.35789C35.9436 8.3517 36.4839 8.46799 36.9789 8.69819C37.4598 8.92517 37.8837 9.25685 38.2198 9.66894C38.5783 10.1038 38.8502 10.6032 39.0207 11.1404C39.2111 11.7354 39.3051 12.357 39.2991 12.9816V16.8245C39.3026 16.9547 39.279 17.0841 39.2299 17.2047C39.1809 17.3253 39.1073 17.4344 39.014 17.5252C38.8231 17.7051 38.5707 17.8054 38.3083 17.8054C38.046 17.8054 37.7936 17.7051 37.6027 17.5252L37.606 17.5257ZM45.417 8.97739C45.3669 8.85668 45.292 8.74787 45.1971 8.65802C45.1019 8.56557 44.9893 8.49306 44.8657 8.44477C44.7421 8.39647 44.6101 8.37335 44.4775 8.37676H43.5569V7.85658C43.5532 7.53921 43.6756 7.23334 43.8972 7.00613C44.0058 6.89038 44.138 6.79919 44.2847 6.73867C44.4315 6.67816 44.5895 6.64972 44.7482 6.65526C44.8836 6.65629 45.0179 6.63094 45.1436 6.58062C45.2653 6.5314 45.3759 6.4583 45.4689 6.36564C45.5617 6.27626 45.6354 6.16885 45.6853 6.05C45.7352 5.93115 45.7603 5.80337 45.759 5.67448C45.7637 5.54723 45.7406 5.42048 45.6914 5.30305C45.6421 5.18561 45.5679 5.08031 45.4739 4.99445C45.275 4.81773 45.0157 4.72438 44.7499 4.7338C44.3232 4.73024 43.8993 4.80324 43.4984 4.94934C43.1221 5.08625 42.778 5.29915 42.4876 5.57479C42.2013 5.85555 41.9741 6.19071 41.8192 6.56058C41.6526 6.95864 41.5656 7.3855 41.563 7.81704V8.37955H40.9025C40.7722 8.37603 40.6425 8.39888 40.5212 8.44673C40.4 8.49459 40.2896 8.56645 40.1968 8.65802C40.1037 8.74885 40.0303 8.858 39.9814 8.97859C39.9326 9.09917 39.9092 9.22858 39.9128 9.35865C39.9123 9.62449 40.0165 9.87983 40.203 10.0693C40.2915 10.1666 40.3998 10.2437 40.5207 10.2955C40.6416 10.3473 40.7721 10.3725 40.9036 10.3695H41.5641V16.7649C41.5641 17.029 41.6691 17.2823 41.8558 17.469C42.0426 17.6558 42.2959 17.7607 42.56 17.7607C42.8241 17.7607 43.0774 17.6558 43.2641 17.469C43.4509 17.2823 43.5558 17.029 43.5558 16.7649V10.3695H44.477C44.6104 10.3722 44.7431 10.3478 44.8669 10.298C44.9907 10.2481 45.1032 10.1737 45.1976 10.0793C45.292 9.98494 45.3664 9.87245 45.4163 9.74861C45.4661 9.62477 45.4905 9.49213 45.4878 9.35865C45.4912 9.22801 45.4671 9.0981 45.417 8.97739ZM48.7003 17.5356C47.5432 17.0461 46.6223 16.1252 46.1328 14.9681C45.8912 14.3855 45.7669 13.761 45.7669 13.1302C45.7669 12.4995 45.8912 11.8749 46.1328 11.2923C46.6225 10.1355 47.5434 9.21484 48.7003 8.72537C49.2835 8.48091 49.9095 8.35501 50.5418 8.35501C51.1742 8.35501 51.8002 8.48091 52.3834 8.72537C52.9558 8.9667 53.4759 9.3168 53.915 9.75627C54.3519 10.1989 54.7001 10.721 54.9408 11.2945C55.428 12.4714 55.428 13.7935 54.9408 14.9704C54.6999 15.5432 54.3517 16.0648 53.915 16.507C53.4758 16.9463 52.9557 17.2963 52.3834 17.5379C51.8002 17.7823 51.1742 17.9082 50.5418 17.9082C49.9095 17.9082 49.2835 17.7823 48.7003 17.5379V17.5356ZM51.6226 15.6838C51.9553 15.5425 52.2578 15.3387 52.5137 15.0834C52.7671 14.83 52.9677 14.5288 53.104 14.1973C53.2441 13.8598 53.3155 13.4978 53.314 13.1325C53.3161 12.7634 53.2448 12.3976 53.104 12.0564C52.9678 11.7241 52.7666 11.4224 52.5122 11.1688C52.2578 10.9153 51.9553 10.7151 51.6226 10.58C51.2796 10.4396 50.9122 10.3682 50.5415 10.37C50.1758 10.3685 49.8134 10.4399 49.4756 10.58C49.1443 10.7164 48.8434 10.9171 48.59 11.1703C48.3323 11.4272 48.1267 11.7315 47.9846 12.0665C47.8417 12.4036 47.7691 12.7663 47.7713 13.1325C47.7705 13.4992 47.8464 13.8621 47.9941 14.1979C48.2808 14.8653 48.8127 15.3974 49.48 15.6844C49.816 15.832 50.179 15.9079 50.546 15.9071C50.9164 15.9074 51.2829 15.8314 51.6226 15.6838ZM15.1345 10.3701H14.2712L14.2684 14.9916C14.2686 15.2004 14.3516 15.4006 14.4992 15.5483C14.6469 15.6959 14.8471 15.7789 15.0559 15.7791H15.1161C15.3802 15.7791 15.6335 15.884 15.8202 16.0708C16.007 16.2575 16.1119 16.5108 16.1119 16.7749C16.1119 17.039 16.007 17.2923 15.8202 17.479C15.6335 17.6658 15.3802 17.7707 15.1161 17.7707H15.0559C14.3193 17.7692 13.6133 17.476 13.0924 16.9551C12.5715 16.4342 12.2783 15.7282 12.2768 14.9916L12.2796 10.3689H11.5589C11.4276 10.3717 11.2972 10.3464 11.1765 10.2948C11.0558 10.2431 10.9474 10.1662 10.8588 10.0693C10.6681 9.88213 10.5593 9.62698 10.5564 9.35976C10.5564 8.79892 10.9986 8.37898 11.5589 8.37898H12.2762V6.98663C12.2762 6.72252 12.3812 6.46923 12.5679 6.28248C12.7547 6.09573 13.0079 5.99081 13.272 5.99081C13.5362 5.99081 13.7894 6.09573 13.9762 6.28248C14.1629 6.46923 14.2679 6.72252 14.2679 6.98663H14.2712V8.37898H15.1345C15.7064 8.37898 16.137 8.79892 16.137 9.35976C16.1401 9.49264 16.1164 9.62479 16.0673 9.74828C16.0181 9.87178 15.9445 9.98407 15.8509 10.0784C15.7573 10.1728 15.6455 10.2472 15.5224 10.2973C15.3993 10.3475 15.2674 10.3722 15.1345 10.3701Z" fill="white"/>
</svg>
