<svg width="200" height="27" viewBox="0 0 200 27" fill="none" xmlns="http://www.w3.org/2000/svg">
<path d="M85.8446 15.3597C85.8446 16.309 85.4989 17.0385 84.8075 17.5482C84.1161 18.0521 83.1259 18.3041 81.8368 18.3041C80.5419 18.3041 79.5018 18.1078 78.7167 17.7152V15.931C79.8593 16.4584 80.9227 16.722 81.9071 16.722C83.1786 16.722 83.8143 16.3383 83.8143 15.5707C83.8143 15.3246 83.744 15.1195 83.6034 14.9554C83.4628 14.7914 83.2313 14.6215 82.9091 14.4457C82.5868 14.2699 82.1385 14.0707 81.5643 13.848C80.4452 13.4144 79.6864 12.9808 79.288 12.5472C78.8954 12.1136 78.6991 11.5511 78.6991 10.8597C78.6991 10.0277 79.0331 9.38318 79.701 8.92615C80.3749 8.46326 81.2889 8.23181 82.4432 8.23181C83.5858 8.23181 84.6669 8.46326 85.6864 8.92615L85.0184 10.4818C83.9696 10.0482 83.0878 9.83142 82.3729 9.83142C81.2831 9.83142 80.7382 10.142 80.7382 10.7631C80.7382 11.0677 80.8788 11.3256 81.16 11.5365C81.4471 11.7474 82.0682 12.0375 83.0233 12.4066C83.826 12.7172 84.4091 13.0013 84.7723 13.2592C85.1356 13.517 85.4052 13.8158 85.5809 14.1556C85.7567 14.4896 85.8446 14.891 85.8446 15.3597Z" fill="#AC1B24"/>
<path d="M91.7069 16.6342C92.2108 16.6342 92.7147 16.5551 93.2186 16.3969V17.9525C92.9901 18.0521 92.6942 18.1342 92.3309 18.1986C91.9735 18.2689 91.6014 18.3041 91.2147 18.3041C89.2577 18.3041 88.2792 17.2728 88.2792 15.2103V9.97205H86.952V9.05798L88.3759 8.30212L89.079 6.24548H90.3534V8.40759H93.1219V9.97205H90.3534V15.1752C90.3534 15.6732 90.4764 16.0424 90.7225 16.2826C90.9745 16.517 91.3026 16.6342 91.7069 16.6342Z" fill="#AC1B24"/>
<path d="M97.2352 18.1283H95.1698V8.40759H97.2352V18.1283ZM95.0468 5.8324C95.0468 5.46326 95.1464 5.17908 95.3456 4.97986C95.5507 4.78064 95.8407 4.68103 96.2157 4.68103C96.579 4.68103 96.8602 4.78064 97.0594 4.97986C97.2645 5.17908 97.3671 5.46326 97.3671 5.8324C97.3671 6.18396 97.2645 6.46228 97.0594 6.66736C96.8602 6.86658 96.579 6.96619 96.2157 6.96619C95.8407 6.96619 95.5507 6.86658 95.3456 6.66736C95.1464 6.46228 95.0468 6.18396 95.0468 5.8324Z" fill="#AC1B24"/>
<path d="M104.117 18.3041C102.646 18.3041 101.527 17.8763 100.76 17.0209C99.9979 16.1595 99.6171 14.9261 99.6171 13.3207C99.6171 11.6859 100.016 10.4291 100.812 9.55017C101.615 8.67126 102.772 8.23181 104.284 8.23181C105.309 8.23181 106.232 8.42224 107.053 8.8031L106.429 10.4642C105.556 10.1244 104.835 9.95447 104.266 9.95447C102.585 9.95447 101.744 11.0707 101.744 13.3031C101.744 14.3929 101.952 15.2133 102.368 15.764C102.79 16.309 103.405 16.5814 104.214 16.5814C105.134 16.5814 106.004 16.3529 106.824 15.8959V17.6976C106.455 17.9144 106.059 18.0697 105.638 18.1635C105.222 18.2572 104.715 18.3041 104.117 18.3041Z" fill="#AC1B24"/>
<path d="M111.104 12.9955L112.273 11.5365L115.209 8.40759H117.591L113.68 12.5824L117.837 18.1283H115.411L112.291 13.8656L111.157 14.7972V18.1283H109.109V4.45251H111.157V11.1234L111.052 12.9955H111.104Z" fill="#AC1B24"/>
<path d="M123.655 18.3041C122.143 18.3041 120.96 17.8646 120.104 16.9857C119.255 16.101 118.83 14.8851 118.83 13.3383C118.83 11.7504 119.225 10.5023 120.016 9.59412C120.807 8.68591 121.894 8.23181 123.277 8.23181C124.56 8.23181 125.574 8.62146 126.318 9.40076C127.062 10.1801 127.434 11.2523 127.434 12.6176V13.7338H120.957C120.986 14.6771 121.241 15.4037 121.722 15.9135C122.202 16.4174 122.879 16.6693 123.752 16.6693C124.326 16.6693 124.859 16.6166 125.351 16.5111C125.849 16.3998 126.383 16.2181 126.951 15.9662V17.6449C126.447 17.8851 125.937 18.0551 125.422 18.1547C124.906 18.2543 124.317 18.3041 123.655 18.3041ZM123.277 9.79626C122.621 9.79626 122.094 10.0043 121.695 10.4203C121.303 10.8363 121.068 11.4427 120.992 12.2396H125.404C125.392 11.4369 125.199 10.8304 124.824 10.4203C124.449 10.0043 123.933 9.79626 123.277 9.79626Z" fill="#AC1B24"/>
<path d="M134.712 8.23181C135.128 8.23181 135.471 8.26111 135.74 8.3197L135.538 10.2445C135.245 10.1742 134.94 10.139 134.624 10.139C133.798 10.139 133.127 10.4086 132.611 10.9476C132.101 11.4867 131.847 12.1869 131.847 13.0482V18.1283H129.781V8.40759H131.398L131.671 10.1215H131.776C132.099 9.54138 132.517 9.08142 133.033 8.74158C133.555 8.40173 134.114 8.23181 134.712 8.23181Z" fill="#AC1B24"/>
<path d="M144.292 18.1283H142.226V8.40759H144.292V18.1283ZM142.103 5.8324C142.103 5.46326 142.203 5.17908 142.402 4.97986C142.607 4.78064 142.897 4.68103 143.272 4.68103C143.636 4.68103 143.917 4.78064 144.116 4.97986C144.321 5.17908 144.424 5.46326 144.424 5.8324C144.424 6.18396 144.321 6.46228 144.116 6.66736C143.917 6.86658 143.636 6.96619 143.272 6.96619C142.897 6.96619 142.607 6.86658 142.402 6.66736C142.203 6.46228 142.103 6.18396 142.103 5.8324Z" fill="#AC1B24"/>
<path d="M155.445 18.1283H153.371V12.1342C153.371 11.39 153.23 10.8363 152.949 10.473C152.668 10.1039 152.228 9.91931 151.631 9.91931C150.834 9.91931 150.248 10.1801 149.873 10.7015C149.504 11.2172 149.319 12.0785 149.319 13.2855V18.1283H147.254V8.40759H148.871L149.161 9.68201H149.266C149.536 9.21912 149.926 8.86169 150.435 8.60974C150.951 8.35779 151.516 8.23181 152.132 8.23181C153.626 8.23181 154.616 8.74158 155.102 9.76111H155.243C155.53 9.28064 155.934 8.90564 156.456 8.63611C156.977 8.36658 157.575 8.23181 158.249 8.23181C159.409 8.23181 160.253 8.52478 160.78 9.11072C161.313 9.69666 161.58 10.5902 161.58 11.7914V18.1283H159.515V12.1342C159.515 11.39 159.371 10.8363 159.084 10.473C158.803 10.1039 158.363 9.91931 157.766 9.91931C156.963 9.91931 156.374 10.1713 155.999 10.6752C155.63 11.1732 155.445 11.9408 155.445 12.9779V18.1283Z" fill="#AC1B24"/>
<path d="M169.393 18.3041C168.163 18.3041 167.208 17.8617 166.528 16.9769H166.405C166.487 17.7972 166.528 18.2953 166.528 18.4711V22.4525H164.463V8.40759H166.133C166.18 8.58923 166.276 9.02283 166.423 9.70837H166.528C167.173 8.724 168.14 8.23181 169.429 8.23181C170.641 8.23181 171.585 8.67126 172.259 9.55017C172.938 10.4291 173.278 11.6625 173.278 13.2504C173.278 14.8383 172.932 16.0775 172.241 16.9681C171.556 17.8588 170.606 18.3041 169.393 18.3041ZM168.892 9.91931C168.072 9.91931 167.472 10.1595 167.091 10.64C166.716 11.1205 166.528 11.8881 166.528 12.9427V13.2504C166.528 14.434 166.716 15.2924 167.091 15.8256C167.466 16.3529 168.078 16.6166 168.928 16.6166C169.642 16.6166 170.193 16.3236 170.58 15.7377C170.967 15.1517 171.16 14.3168 171.16 13.2328C171.16 12.1429 170.967 11.3197 170.58 10.7631C170.199 10.2006 169.637 9.91931 168.892 9.91931Z" fill="#AC1B24"/>
<path d="M184.3 13.2504C184.3 14.8383 183.892 16.0775 183.078 16.9681C182.264 17.8588 181.13 18.3041 179.677 18.3041C178.768 18.3041 177.966 18.099 177.268 17.6888C176.571 17.2787 176.035 16.6898 175.66 15.9222C175.285 15.1547 175.098 14.264 175.098 13.2504C175.098 11.6742 175.502 10.4437 176.31 9.55896C177.119 8.67419 178.259 8.23181 179.729 8.23181C181.136 8.23181 182.249 8.68591 183.069 9.59412C183.89 10.4965 184.3 11.7152 184.3 13.2504ZM177.224 13.2504C177.224 15.4945 178.054 16.6166 179.712 16.6166C181.352 16.6166 182.173 15.4945 182.173 13.2504C182.173 11.0297 181.347 9.91931 179.694 9.91931C178.827 9.91931 178.197 10.2064 177.805 10.7806C177.418 11.3549 177.224 12.1781 177.224 13.2504Z" fill="#AC1B24"/>
<path d="M191.612 8.23181C192.028 8.23181 192.371 8.26111 192.641 8.3197L192.438 10.2445C192.145 10.1742 191.841 10.139 191.524 10.139C190.698 10.139 190.027 10.4086 189.512 10.9476C189.002 11.4867 188.747 12.1869 188.747 13.0482V18.1283H186.682V8.40759H188.299L188.571 10.1215H188.677C188.999 9.54138 189.418 9.08142 189.933 8.74158C190.455 8.40173 191.015 8.23181 191.612 8.23181Z" fill="#AC1B24"/>
<path d="M198.072 16.6342C198.576 16.6342 199.08 16.5551 199.584 16.3969V17.9525C199.355 18.0521 199.059 18.1342 198.696 18.1986C198.339 18.2689 197.967 18.3041 197.58 18.3041C195.623 18.3041 194.644 17.2728 194.644 15.2103V9.97205H193.317V9.05798L194.741 8.30212L195.444 6.24548H196.719V8.40759H199.487V9.97205H196.719V15.1752C196.719 15.6732 196.842 16.0424 197.088 16.2826C197.34 16.517 197.668 16.6342 198.072 16.6342Z" fill="#AC1B24"/>
<rect x="0.931274" y="0.452515" width="64" height="26" rx="12.9979" fill="#AC1B24"/>
<path d="M19.2057 21.563C18.6577 21.3559 18.1615 21.0314 17.7521 20.6122C17.5119 20.3716 17.3918 20.1047 17.3918 19.8114C17.3836 19.6768 17.4075 19.5423 17.4614 19.4187C17.5153 19.2952 17.5978 19.1862 17.702 19.1007C17.9288 18.9002 18.1591 18.8001 18.3926 18.8005C18.5453 18.8004 18.6955 18.8401 18.8281 18.9158C18.9881 19.0084 19.1405 19.1136 19.2837 19.2305C19.8119 19.6801 20.4926 19.9096 21.1851 19.8715C21.5175 19.8651 21.8451 19.7912 22.1481 19.6543C22.758 19.3836 23.2463 18.897 23.5193 18.2881C23.6594 17.9813 23.7473 17.6532 23.7793 17.3174C23.1186 17.7828 22.3506 18.0729 21.5472 18.1606C20.7438 18.2482 19.9312 18.1306 19.1857 17.8186C18.0286 17.3291 17.1077 16.4082 16.6182 15.2511C16.3766 14.6685 16.2523 14.0439 16.2523 13.4132C16.2523 12.7825 16.3766 12.1579 16.6182 11.5753C17.1079 10.4185 18.0288 9.49782 19.1857 9.00835C19.9335 8.69411 20.7494 8.57693 21.5554 8.668C22.3614 8.75907 23.1306 9.05536 23.7894 9.52853C23.8123 9.28284 23.9287 9.05535 24.1146 8.89306C24.2991 8.72506 24.5407 8.63383 24.7902 8.63798C24.9205 8.63449 25.0502 8.65736 25.1714 8.70521C25.2927 8.75306 25.403 8.82491 25.4958 8.91645C25.5892 9.0072 25.6627 9.11631 25.7118 9.2369C25.7609 9.35749 25.7844 9.48694 25.781 9.61709V13.1197C25.7794 13.1667 25.7827 13.2138 25.791 13.26V13.5602C25.7831 13.61 25.7798 13.6603 25.781 13.7106V17.1336C25.7724 17.7782 25.6401 18.4152 25.3911 19.0099C25.1546 19.578 24.8076 20.0935 24.3703 20.5265C23.9368 20.9595 23.4212 21.3014 22.8537 21.5323C22.2676 21.7708 21.6402 21.8916 21.0074 21.8876C20.3919 21.8927 19.7808 21.7826 19.2057 21.563ZM22.0528 15.988C22.3718 15.8572 22.665 15.6709 22.9189 15.4377C23.4167 14.9658 23.726 14.329 23.7894 13.646V13.1854C23.7581 12.8402 23.6649 12.5034 23.5142 12.1913C23.3687 11.8875 23.1667 11.6142 22.9189 11.3859C22.667 11.1562 22.3752 10.9747 22.0578 10.8502C21.383 10.5851 20.6319 10.5905 19.9609 10.8652C19.6297 11.0016 19.3288 11.2023 19.0754 11.4556C18.8177 11.7124 18.6121 12.0167 18.47 12.3517C18.3261 12.6882 18.2524 13.0505 18.2534 13.4165C18.2526 13.7833 18.3285 14.1462 18.4761 14.482C18.7629 15.1494 19.2947 15.6815 19.9621 15.9685C20.292 16.1105 20.6468 16.1854 21.006 16.1889C21.3651 16.1923 21.7214 16.1242 22.0539 15.9885L22.0528 15.988Z" fill="white"/>
<path d="M27.5426 7.26066C27.4374 7.16003 27.3538 7.03897 27.297 6.90489C27.2402 6.77081 27.2114 6.62655 27.2124 6.48094C27.2106 6.33356 27.2389 6.18738 27.2957 6.05137C27.3525 5.91536 27.4365 5.79241 27.5426 5.69009C27.7508 5.48599 28.0308 5.37167 28.3223 5.37167C28.6139 5.37167 28.8939 5.48599 29.1021 5.69009C29.2083 5.79233 29.2923 5.91526 29.3492 6.05129C29.406 6.18732 29.4343 6.33355 29.4323 6.48094C29.4306 6.69954 29.3643 6.91276 29.2419 7.0939C29.1196 7.27505 28.9465 7.41606 28.7443 7.49929C28.5422 7.58253 28.32 7.60428 28.1055 7.56184C27.8911 7.51939 27.6939 7.41463 27.5387 7.26066H27.5426ZM27.6329 17.7796C27.5375 17.6896 27.4616 17.581 27.4099 17.4605C27.3582 17.34 27.3317 17.2101 27.3321 17.079V9.63268C27.3284 9.49959 27.3533 9.36726 27.4052 9.24465C27.4571 9.12204 27.5347 9.01201 27.6329 8.92202C27.8222 8.73537 28.0776 8.63107 28.3435 8.63186C28.4743 8.62718 28.6045 8.65068 28.7254 8.70074C28.8463 8.7508 28.955 8.82627 29.0441 8.92202C29.2266 9.11322 29.3266 9.36844 29.3226 9.63268V17.079C29.3226 17.275 29.2645 17.4665 29.1557 17.6295C29.0468 17.7924 28.892 17.9194 28.711 17.9944C28.5299 18.0694 28.3307 18.0891 28.1385 18.0508C27.9463 18.0126 27.7697 17.9182 27.6312 17.7796H27.6329Z" fill="white"/>
<path d="M37.606 17.8098C37.5127 17.719 37.4391 17.6099 37.3901 17.4893C37.341 17.3687 37.3174 17.2393 37.3209 17.1092V13.2662C37.3075 12.4591 37.1174 11.8186 36.7506 11.3448C36.3633 10.8643 35.8394 10.6241 35.1789 10.6241C34.8588 10.6215 34.5417 10.6862 34.2482 10.814C33.9631 10.9395 33.7099 11.1276 33.5075 11.3643C33.2968 11.6113 33.1325 11.8943 33.0224 12.1997C32.9034 12.5251 32.8434 12.8691 32.8453 13.2156V17.0791C32.8453 17.3432 32.7404 17.5965 32.5536 17.7832C32.3669 17.97 32.1136 18.0749 31.8495 18.0749C31.5854 18.0749 31.3321 17.97 31.1453 17.7832C30.9586 17.5965 30.8537 17.3432 30.8537 17.0791V9.63275C30.8498 9.4997 30.8747 9.36738 30.9264 9.24477C30.9782 9.12215 31.0558 9.01211 31.1538 8.92209C31.3433 8.73554 31.5986 8.63127 31.8645 8.63193C31.9955 8.62701 32.1261 8.65039 32.2473 8.70046C32.3685 8.75053 32.4775 8.82612 32.5668 8.92209C32.7492 9.11329 32.8493 9.36851 32.8453 9.63275V9.77255C33.1981 9.42657 33.6079 9.14397 34.0566 8.93713C34.4772 8.74326 34.9347 8.64257 35.3978 8.64195C35.9436 8.63576 36.4839 8.75204 36.9789 8.98225C37.4598 9.20922 37.8837 9.54091 38.2198 9.953C38.5783 10.3878 38.8502 10.8873 39.0207 11.4244C39.2111 12.0194 39.3051 12.641 39.2991 13.2657V17.1086C39.3026 17.2387 39.279 17.3682 39.2299 17.4888C39.1809 17.6094 39.1073 17.7185 39.014 17.8092C38.8231 17.9892 38.5707 18.0894 38.3083 18.0894C38.046 18.0894 37.7936 17.9892 37.6027 17.8092L37.606 17.8098Z" fill="white"/>
<path d="M45.1971 8.94208C45.292 9.03192 45.367 9.14074 45.417 9.26145C45.4671 9.38216 45.4913 9.51207 45.4878 9.64271C45.4905 9.77619 45.4662 9.90882 45.4163 10.0327C45.3664 10.1565 45.2921 10.269 45.1977 10.3634C45.1033 10.4578 44.9908 10.5322 44.8669 10.582C44.7431 10.6319 44.6105 10.6562 44.477 10.6536H43.5558V17.0489C43.5558 17.313 43.4509 17.5663 43.2641 17.7531C43.0774 17.9398 42.8241 18.0447 42.56 18.0447C42.2959 18.0447 42.0426 17.9398 41.8558 17.7531C41.6691 17.5663 41.5642 17.313 41.5642 17.0489V10.6536H40.9036C40.7722 10.6566 40.6416 10.6313 40.5207 10.5795C40.3999 10.5277 40.2915 10.4506 40.203 10.3534C40.0166 10.1639 39.9123 9.90855 39.9128 9.64271C39.9092 9.51264 39.9326 9.38323 39.9815 9.26264C40.0304 9.14206 40.1037 9.03291 40.1969 8.94208C40.2897 8.85051 40.4 8.77865 40.5213 8.73079C40.6425 8.68294 40.7722 8.66009 40.9025 8.66361H41.5631V8.10109C41.5656 7.66956 41.6526 7.2427 41.8193 6.84463C41.9741 6.47477 42.2013 6.1396 42.4876 5.85884C42.778 5.58321 43.1221 5.37031 43.4984 5.2334C43.8993 5.08729 44.3232 5.01429 44.7499 5.01786C45.0158 5.00844 45.275 5.10179 45.4739 5.27851C45.568 5.36437 45.6422 5.46967 45.6914 5.5871C45.7407 5.70454 45.7637 5.83128 45.7591 5.95854C45.7603 6.08743 45.7352 6.21521 45.6853 6.33406C45.6354 6.45291 45.5618 6.56032 45.4689 6.6497C45.3759 6.74236 45.2653 6.81546 45.1436 6.86468C45.0179 6.915 44.8836 6.94035 44.7482 6.93931C44.5896 6.93378 44.4315 6.96222 44.2848 7.02273C44.138 7.08325 44.0059 7.17443 43.8972 7.29019C43.6756 7.5174 43.5532 7.82327 43.5569 8.14064V8.66082H44.4775C44.6102 8.6574 44.7421 8.68052 44.8657 8.72882C44.9893 8.77712 45.102 8.84963 45.1971 8.94208Z" fill="white"/>
<path d="M48.7003 17.8197C47.5432 17.3302 46.6223 16.4093 46.1328 15.2522C45.8912 14.6696 45.7668 14.045 45.7668 13.4143C45.7668 12.7836 45.8912 12.159 46.1328 11.5764C46.6225 10.4196 47.5434 9.4989 48.7003 9.00942C49.2834 8.76497 49.9095 8.63907 50.5418 8.63907C51.1741 8.63907 51.8002 8.76497 52.3833 9.00942C52.9557 9.25076 53.4759 9.60086 53.9149 10.0403C54.3519 10.483 54.7001 11.0051 54.9408 11.5786C55.428 12.7555 55.428 14.0776 54.9408 15.2544C54.6999 15.8273 54.3517 16.3489 53.9149 16.791C53.4757 17.2303 52.9556 17.5804 52.3833 17.8219C51.8002 18.0664 51.1741 18.1923 50.5418 18.1923C49.9095 18.1923 49.2834 18.0664 48.7003 17.8219V17.8197ZM51.6225 15.9679C51.9552 15.8265 52.2577 15.6227 52.5137 15.3675C52.7671 15.114 52.9677 14.8129 53.104 14.4814C53.2441 14.1439 53.3154 13.7819 53.314 13.4165C53.3161 13.0475 53.2447 12.6817 53.104 12.3405C52.9678 12.0082 52.7665 11.7064 52.5121 11.4529C52.2578 11.1994 51.9553 10.9992 51.6225 10.864C51.2795 10.7236 50.9122 10.6523 50.5415 10.6541C50.1758 10.6526 49.8134 10.724 49.4755 10.864C49.1443 11.0005 48.8433 11.2011 48.59 11.4544C48.3322 11.7112 48.1267 12.0155 47.9846 12.3505C47.8417 12.6876 47.7691 13.0504 47.7713 13.4165C47.7705 13.7833 47.8464 14.1462 47.9941 14.4819C48.2808 15.1494 48.8126 15.6814 49.48 15.9684C49.8159 16.1161 50.179 16.1919 50.546 16.1912C50.9164 16.1915 51.2828 16.1155 51.6225 15.9679Z" fill="white"/>
<path d="M14.2712 10.6541H15.1345C15.2674 10.6563 15.3993 10.6315 15.5224 10.5814C15.6455 10.5313 15.7573 10.4568 15.8509 10.3625C15.9445 10.2681 16.0181 10.1558 16.0673 10.0323C16.1164 9.90885 16.1401 9.7767 16.137 9.64382C16.137 9.08298 15.7064 8.66304 15.1345 8.66304H14.2712V7.27069H14.2679C14.2679 7.00658 14.1629 6.75329 13.9762 6.56654C13.7894 6.37979 13.5362 6.27487 13.272 6.27487C13.0079 6.27487 12.7547 6.37979 12.5679 6.56654C12.3812 6.75329 12.2762 7.00658 12.2762 7.27069V8.66304H11.5589C10.9986 8.66304 10.5564 9.08298 10.5564 9.64382C10.5593 9.91103 10.6681 10.1662 10.8588 10.3534C10.9474 10.4503 11.0558 10.5271 11.1765 10.5788C11.2972 10.6305 11.4276 10.6558 11.5589 10.653H12.2796L12.2768 15.2756C12.2783 16.0122 12.5715 16.7183 13.0924 17.2391C13.6133 17.76 14.3193 18.0533 15.0559 18.0548H15.1161C15.3802 18.0548 15.6335 17.9499 15.8202 17.7631C16.007 17.5764 16.1119 17.3231 16.1119 17.059C16.1119 16.7948 16.007 16.5416 15.8202 16.3548C15.6335 16.1681 15.3802 16.0631 15.1161 16.0631H15.0559C14.8471 16.063 14.6469 15.98 14.4992 15.8323C14.3516 15.6847 14.2686 15.4844 14.2684 15.2756L14.2712 10.6541Z" fill="white"/>
</svg>
